# xmcd
#
# Track frame offsets:
#	150
#	18195
#	43739
#	61401
#	78234
#	95589
#	112233
#	129226
#	148410
#	168123
#	185586
#	199852
#	220687
#	242277
#	262371
#	281001
#
# Disc length: 3981 seconds
#
# Revision: 0
# Processed by: cddbd v1.5.1PL2 Copyright (c) Steve Scherf et al.
# Submitted via: audiograbber 1.83.01
#
DISCID=ec0f8b10
DTITLE=zdfg - g
DYEAR=1900
DGENRE=
TTITLE0=311 - Beautiful Disaster
TTITLE1=Brooks and Dunn - Believe
TTITLE2=Daniel Powter - Bad Day
TTITLE3=Matisyahu - King without a Crown
TTITLE4=Teddy Geiger - For You I will ( confidence)
TTITLE5=Bon Jovi - Have a Nice Day
TTITLE6=Bon Jovi - It's My Life
TTITLE7=Sheryl Crow Ft Sting - Always on Your Side
TTITLE8=Alison Krauss - When you Say Nothing at all
TTITLE9=Eric Church - How Bout You
TTITLE10=Kelly Clarkson - Walk Away
TTITLE11=Eminem - Shake That (edited)
TTITLE12=Monifah - Touch it (explicit)
TTITLE13=Mary J Blige - Family Affair
TTITLE14=Mary J Blige - Be Withou You
TTITLE15=Jason Mraz - Geek In the Pink
EXTD=gbws\ngweg\n
EXTT0=
EXTT1=
EXTT2=
EXTT3=
EXTT4=
EXTT5=
EXTT6=
EXTT7=
EXTT8=
EXTT9=
EXTT10=
EXTT11=
EXTT12=
EXTT13=
EXTT14=
EXTT15=
PLAYORDER=
